<mxfile host="app.diagrams.net" modified="2022-09-05T10:11:23.327Z" agent="5.0 (Windows NT 10.0; Win64; x64) AppleWebKit/537.36 (KHTML, like Gecko) Chrome/102.0.5005.167 YaBrowser/22.7.4.957 Yowser/2.5 Safari/537.36" etag="6OyUZJjBQm6_-aHk8U_f" version="20.2.8" type="github">
  <diagram id="C5RBs43oDa-KdzZeNtuy" name="Page-1">
    <mxGraphModel dx="2249" dy="1934" grid="1" gridSize="10" guides="1" tooltips="1" connect="1" arrows="1" fold="1" page="1" pageScale="1" pageWidth="827" pageHeight="1169" math="0" shadow="0">
      <root>
        <mxCell id="WIyWlLk6GJQsqaUBKTNV-0" />
        <mxCell id="WIyWlLk6GJQsqaUBKTNV-1" parent="WIyWlLk6GJQsqaUBKTNV-0" />
        <mxCell id="x6Bd8umGDYyrX07FAp9d-51" value="" style="rounded=0;whiteSpace=wrap;html=1;fillColor=#d5e8d4;strokeColor=#82b366;" parent="WIyWlLk6GJQsqaUBKTNV-1" vertex="1">
          <mxGeometry x="-150" y="-120" width="1000" height="2040" as="geometry" />
        </mxCell>
        <mxCell id="MDdszQrk_3YS0Ri55PwZ-14" style="edgeStyle=orthogonalEdgeStyle;rounded=0;orthogonalLoop=1;jettySize=auto;html=1;entryX=0.5;entryY=0;entryDx=0;entryDy=0;" parent="WIyWlLk6GJQsqaUBKTNV-1" source="WIyWlLk6GJQsqaUBKTNV-3" target="MDdszQrk_3YS0Ri55PwZ-13" edge="1">
          <mxGeometry relative="1" as="geometry" />
        </mxCell>
        <mxCell id="WIyWlLk6GJQsqaUBKTNV-3" value="Начало" style="rounded=1;whiteSpace=wrap;html=1;fontSize=12;glass=0;strokeWidth=1;shadow=0;fillColor=#fff2cc;strokeColor=#d6b656;" parent="WIyWlLk6GJQsqaUBKTNV-1" vertex="1">
          <mxGeometry x="160" y="-50" width="120" height="40" as="geometry" />
        </mxCell>
        <mxCell id="MDdszQrk_3YS0Ri55PwZ-11" style="edgeStyle=orthogonalEdgeStyle;rounded=0;orthogonalLoop=1;jettySize=auto;html=1;entryX=1;entryY=0.5;entryDx=0;entryDy=0;" parent="WIyWlLk6GJQsqaUBKTNV-1" source="MDdszQrk_3YS0Ri55PwZ-7" target="MDdszQrk_3YS0Ri55PwZ-8" edge="1">
          <mxGeometry relative="1" as="geometry" />
        </mxCell>
        <mxCell id="MDdszQrk_3YS0Ri55PwZ-25" style="edgeStyle=orthogonalEdgeStyle;rounded=0;orthogonalLoop=1;jettySize=auto;html=1;entryX=0.5;entryY=0;entryDx=0;entryDy=0;" parent="WIyWlLk6GJQsqaUBKTNV-1" source="MDdszQrk_3YS0Ri55PwZ-7" target="MDdszQrk_3YS0Ri55PwZ-12" edge="1">
          <mxGeometry relative="1" as="geometry" />
        </mxCell>
        <mxCell id="MDdszQrk_3YS0Ri55PwZ-7" value="Данные корректны?" style="rhombus;whiteSpace=wrap;html=1;rounded=0;glass=0;strokeWidth=1;shadow=0;fillColor=#e1d5e7;strokeColor=#9673a6;" parent="WIyWlLk6GJQsqaUBKTNV-1" vertex="1">
          <mxGeometry x="180" y="110" width="80" height="80" as="geometry" />
        </mxCell>
        <mxCell id="x6Bd8umGDYyrX07FAp9d-45" style="edgeStyle=orthogonalEdgeStyle;rounded=1;orthogonalLoop=1;jettySize=auto;html=1;entryX=0;entryY=0.5;entryDx=0;entryDy=0;" parent="WIyWlLk6GJQsqaUBKTNV-1" source="MDdszQrk_3YS0Ri55PwZ-8" target="MDdszQrk_3YS0Ri55PwZ-55" edge="1">
          <mxGeometry relative="1" as="geometry">
            <Array as="points">
              <mxPoint x="-110" y="150" />
              <mxPoint x="-110" y="1860" />
            </Array>
          </mxGeometry>
        </mxCell>
        <mxCell id="MDdszQrk_3YS0Ri55PwZ-8" value="Сообщение об ошибке" style="whiteSpace=wrap;html=1;rounded=0;glass=0;strokeWidth=1;shadow=0;fillColor=#ffe6cc;strokeColor=#d79b00;" parent="WIyWlLk6GJQsqaUBKTNV-1" vertex="1">
          <mxGeometry y="120" width="120" height="60" as="geometry" />
        </mxCell>
        <mxCell id="MDdszQrk_3YS0Ri55PwZ-9" value="Нет" style="text;html=1;strokeColor=none;fillColor=none;align=center;verticalAlign=middle;whiteSpace=wrap;rounded=0;fontColor=#FF0000;" parent="WIyWlLk6GJQsqaUBKTNV-1" vertex="1">
          <mxGeometry x="130" y="110" width="60" height="30" as="geometry" />
        </mxCell>
        <mxCell id="MDdszQrk_3YS0Ri55PwZ-10" value="Да" style="text;html=1;strokeColor=none;fillColor=none;align=center;verticalAlign=middle;whiteSpace=wrap;rounded=0;" parent="WIyWlLk6GJQsqaUBKTNV-1" vertex="1">
          <mxGeometry x="170" y="190" width="60" height="30" as="geometry" />
        </mxCell>
        <mxCell id="MDdszQrk_3YS0Ri55PwZ-24" style="edgeStyle=orthogonalEdgeStyle;rounded=0;orthogonalLoop=1;jettySize=auto;html=1;entryX=0.5;entryY=0;entryDx=0;entryDy=0;" parent="WIyWlLk6GJQsqaUBKTNV-1" source="MDdszQrk_3YS0Ri55PwZ-12" target="MDdszQrk_3YS0Ri55PwZ-18" edge="1">
          <mxGeometry relative="1" as="geometry" />
        </mxCell>
        <mxCell id="MDdszQrk_3YS0Ri55PwZ-12" value="Пользователь вводит данные в поле Откуда" style="whiteSpace=wrap;html=1;rounded=0;glass=0;strokeWidth=1;shadow=0;fillColor=#ffe6cc;strokeColor=#d79b00;" parent="WIyWlLk6GJQsqaUBKTNV-1" vertex="1">
          <mxGeometry x="160" y="230" width="120" height="60" as="geometry" />
        </mxCell>
        <mxCell id="MDdszQrk_3YS0Ri55PwZ-23" style="edgeStyle=orthogonalEdgeStyle;rounded=0;orthogonalLoop=1;jettySize=auto;html=1;" parent="WIyWlLk6GJQsqaUBKTNV-1" source="MDdszQrk_3YS0Ri55PwZ-13" target="MDdszQrk_3YS0Ri55PwZ-7" edge="1">
          <mxGeometry relative="1" as="geometry" />
        </mxCell>
        <mxCell id="MDdszQrk_3YS0Ri55PwZ-13" value="Пользователь ввел время начала поездки" style="whiteSpace=wrap;html=1;rounded=0;glass=0;strokeWidth=1;shadow=0;fillColor=#ffe6cc;strokeColor=#d79b00;" parent="WIyWlLk6GJQsqaUBKTNV-1" vertex="1">
          <mxGeometry x="160" y="20" width="120" height="60" as="geometry" />
        </mxCell>
        <mxCell id="MDdszQrk_3YS0Ri55PwZ-17" style="edgeStyle=orthogonalEdgeStyle;rounded=0;orthogonalLoop=1;jettySize=auto;html=1;entryX=1;entryY=0.5;entryDx=0;entryDy=0;" parent="WIyWlLk6GJQsqaUBKTNV-1" source="MDdszQrk_3YS0Ri55PwZ-18" target="MDdszQrk_3YS0Ri55PwZ-19" edge="1">
          <mxGeometry relative="1" as="geometry" />
        </mxCell>
        <mxCell id="MDdszQrk_3YS0Ri55PwZ-83" style="edgeStyle=orthogonalEdgeStyle;rounded=1;orthogonalLoop=1;jettySize=auto;html=1;entryX=0.5;entryY=0;entryDx=0;entryDy=0;" parent="WIyWlLk6GJQsqaUBKTNV-1" source="MDdszQrk_3YS0Ri55PwZ-18" target="MDdszQrk_3YS0Ri55PwZ-22" edge="1">
          <mxGeometry relative="1" as="geometry" />
        </mxCell>
        <mxCell id="MDdszQrk_3YS0Ri55PwZ-18" value="Данные корректны?" style="rhombus;whiteSpace=wrap;html=1;rounded=0;glass=0;strokeWidth=1;shadow=0;fillColor=#e1d5e7;strokeColor=#9673a6;" parent="WIyWlLk6GJQsqaUBKTNV-1" vertex="1">
          <mxGeometry x="180" y="330" width="80" height="80" as="geometry" />
        </mxCell>
        <mxCell id="x6Bd8umGDYyrX07FAp9d-44" style="edgeStyle=orthogonalEdgeStyle;rounded=1;orthogonalLoop=1;jettySize=auto;html=1;entryX=0;entryY=0.5;entryDx=0;entryDy=0;" parent="WIyWlLk6GJQsqaUBKTNV-1" source="MDdszQrk_3YS0Ri55PwZ-19" target="MDdszQrk_3YS0Ri55PwZ-55" edge="1">
          <mxGeometry relative="1" as="geometry">
            <Array as="points">
              <mxPoint x="-110" y="370" />
              <mxPoint x="-110" y="1860" />
            </Array>
          </mxGeometry>
        </mxCell>
        <mxCell id="MDdszQrk_3YS0Ri55PwZ-19" value="Сообщение об ошибке" style="whiteSpace=wrap;html=1;rounded=0;glass=0;strokeWidth=1;shadow=0;fillColor=#ffe6cc;strokeColor=#d79b00;" parent="WIyWlLk6GJQsqaUBKTNV-1" vertex="1">
          <mxGeometry y="340" width="120" height="60" as="geometry" />
        </mxCell>
        <mxCell id="MDdszQrk_3YS0Ri55PwZ-20" value="Нет" style="text;html=1;strokeColor=none;fillColor=none;align=center;verticalAlign=middle;whiteSpace=wrap;rounded=0;fontColor=#FF0000;" parent="WIyWlLk6GJQsqaUBKTNV-1" vertex="1">
          <mxGeometry x="130" y="330" width="60" height="30" as="geometry" />
        </mxCell>
        <mxCell id="MDdszQrk_3YS0Ri55PwZ-21" value="Да" style="text;html=1;strokeColor=none;fillColor=none;align=center;verticalAlign=middle;whiteSpace=wrap;rounded=0;" parent="WIyWlLk6GJQsqaUBKTNV-1" vertex="1">
          <mxGeometry x="170" y="410" width="60" height="30" as="geometry" />
        </mxCell>
        <mxCell id="MDdszQrk_3YS0Ri55PwZ-35" style="edgeStyle=orthogonalEdgeStyle;rounded=0;orthogonalLoop=1;jettySize=auto;html=1;entryX=0.5;entryY=0;entryDx=0;entryDy=0;" parent="WIyWlLk6GJQsqaUBKTNV-1" source="MDdszQrk_3YS0Ri55PwZ-22" target="MDdszQrk_3YS0Ri55PwZ-29" edge="1">
          <mxGeometry relative="1" as="geometry" />
        </mxCell>
        <mxCell id="MDdszQrk_3YS0Ri55PwZ-22" value="Пользователь вводит данные в поле Куда" style="whiteSpace=wrap;html=1;rounded=0;glass=0;strokeWidth=1;shadow=0;fillColor=#ffe6cc;strokeColor=#d79b00;" parent="WIyWlLk6GJQsqaUBKTNV-1" vertex="1">
          <mxGeometry x="160" y="450" width="120" height="60" as="geometry" />
        </mxCell>
        <mxCell id="MDdszQrk_3YS0Ri55PwZ-28" style="edgeStyle=orthogonalEdgeStyle;rounded=1;orthogonalLoop=1;jettySize=auto;html=1;entryX=1;entryY=0.5;entryDx=0;entryDy=0;" parent="WIyWlLk6GJQsqaUBKTNV-1" source="MDdszQrk_3YS0Ri55PwZ-29" target="MDdszQrk_3YS0Ri55PwZ-30" edge="1">
          <mxGeometry relative="1" as="geometry" />
        </mxCell>
        <mxCell id="x6Bd8umGDYyrX07FAp9d-1" style="edgeStyle=orthogonalEdgeStyle;rounded=0;orthogonalLoop=1;jettySize=auto;html=1;entryX=0.5;entryY=0;entryDx=0;entryDy=0;" parent="WIyWlLk6GJQsqaUBKTNV-1" source="MDdszQrk_3YS0Ri55PwZ-29" target="MDdszQrk_3YS0Ri55PwZ-41" edge="1">
          <mxGeometry relative="1" as="geometry" />
        </mxCell>
        <mxCell id="MDdszQrk_3YS0Ri55PwZ-29" value="Данные корректны?" style="rhombus;whiteSpace=wrap;html=1;rounded=0;glass=0;strokeWidth=1;shadow=0;fillColor=#e1d5e7;strokeColor=#9673a6;" parent="WIyWlLk6GJQsqaUBKTNV-1" vertex="1">
          <mxGeometry x="180" y="540" width="80" height="80" as="geometry" />
        </mxCell>
        <mxCell id="x6Bd8umGDYyrX07FAp9d-43" style="edgeStyle=orthogonalEdgeStyle;rounded=1;orthogonalLoop=1;jettySize=auto;html=1;entryX=0;entryY=0.5;entryDx=0;entryDy=0;" parent="WIyWlLk6GJQsqaUBKTNV-1" source="MDdszQrk_3YS0Ri55PwZ-30" target="MDdszQrk_3YS0Ri55PwZ-55" edge="1">
          <mxGeometry relative="1" as="geometry">
            <Array as="points">
              <mxPoint x="-110" y="580" />
              <mxPoint x="-110" y="1860" />
            </Array>
          </mxGeometry>
        </mxCell>
        <mxCell id="MDdszQrk_3YS0Ri55PwZ-30" value="Сообщение об ошибке" style="whiteSpace=wrap;html=1;rounded=0;glass=0;strokeWidth=1;shadow=0;fillColor=#ffe6cc;strokeColor=#d79b00;" parent="WIyWlLk6GJQsqaUBKTNV-1" vertex="1">
          <mxGeometry y="550" width="120" height="60" as="geometry" />
        </mxCell>
        <mxCell id="MDdszQrk_3YS0Ri55PwZ-31" value="Нет" style="text;html=1;strokeColor=none;fillColor=none;align=center;verticalAlign=middle;whiteSpace=wrap;rounded=0;fontColor=#FF0000;" parent="WIyWlLk6GJQsqaUBKTNV-1" vertex="1">
          <mxGeometry x="130" y="540" width="60" height="30" as="geometry" />
        </mxCell>
        <mxCell id="x6Bd8umGDYyrX07FAp9d-2" style="edgeStyle=orthogonalEdgeStyle;rounded=0;orthogonalLoop=1;jettySize=auto;html=1;entryX=0.5;entryY=0;entryDx=0;entryDy=0;" parent="WIyWlLk6GJQsqaUBKTNV-1" source="MDdszQrk_3YS0Ri55PwZ-41" target="MDdszQrk_3YS0Ri55PwZ-59" edge="1">
          <mxGeometry relative="1" as="geometry" />
        </mxCell>
        <mxCell id="MDdszQrk_3YS0Ri55PwZ-41" value="Пользователь вводит режим маршрута &quot;Свой&quot;" style="whiteSpace=wrap;html=1;rounded=0;glass=0;strokeWidth=1;shadow=0;fillColor=#ffe6cc;strokeColor=#d79b00;" parent="WIyWlLk6GJQsqaUBKTNV-1" vertex="1">
          <mxGeometry x="160" y="660" width="120" height="60" as="geometry" />
        </mxCell>
        <mxCell id="MDdszQrk_3YS0Ri55PwZ-55" value="Конец" style="rounded=1;whiteSpace=wrap;html=1;fontSize=12;glass=0;strokeWidth=1;shadow=0;fillColor=#fff2cc;strokeColor=#d6b656;" parent="WIyWlLk6GJQsqaUBKTNV-1" vertex="1">
          <mxGeometry x="160" y="1840" width="120" height="40" as="geometry" />
        </mxCell>
        <mxCell id="x6Bd8umGDYyrX07FAp9d-4" style="edgeStyle=orthogonalEdgeStyle;rounded=0;orthogonalLoop=1;jettySize=auto;html=1;" parent="WIyWlLk6GJQsqaUBKTNV-1" source="MDdszQrk_3YS0Ri55PwZ-59" target="x6Bd8umGDYyrX07FAp9d-3" edge="1">
          <mxGeometry relative="1" as="geometry" />
        </mxCell>
        <mxCell id="MDdszQrk_3YS0Ri55PwZ-59" value="Пользователь выбирает вид транспорта &quot;Такси&quot;" style="whiteSpace=wrap;html=1;rounded=0;glass=0;strokeWidth=1;shadow=0;fillColor=#ffe6cc;strokeColor=#d79b00;" parent="WIyWlLk6GJQsqaUBKTNV-1" vertex="1">
          <mxGeometry x="160" y="750" width="120" height="60" as="geometry" />
        </mxCell>
        <mxCell id="MDdszQrk_3YS0Ri55PwZ-73" value="Строится маршрут" style="whiteSpace=wrap;html=1;rounded=0;glass=0;strokeWidth=1;shadow=0;" parent="WIyWlLk6GJQsqaUBKTNV-1" vertex="1">
          <mxGeometry x="90" y="1724" width="260" height="60" as="geometry" />
        </mxCell>
        <mxCell id="MDdszQrk_3YS0Ri55PwZ-82" value="Да" style="text;html=1;strokeColor=none;fillColor=none;align=center;verticalAlign=middle;whiteSpace=wrap;rounded=0;" parent="WIyWlLk6GJQsqaUBKTNV-1" vertex="1">
          <mxGeometry x="170" y="610" width="60" height="30" as="geometry" />
        </mxCell>
        <mxCell id="GXfTCK9ahf9_WwvT0qx7-0" style="edgeStyle=orthogonalEdgeStyle;rounded=1;orthogonalLoop=1;jettySize=auto;html=1;entryX=0.5;entryY=0;entryDx=0;entryDy=0;" edge="1" parent="WIyWlLk6GJQsqaUBKTNV-1" source="TxrjslWTLOFKVKNDRbL8-40" target="x6Bd8umGDYyrX07FAp9d-41">
          <mxGeometry relative="1" as="geometry">
            <Array as="points">
              <mxPoint x="767" y="1680" />
              <mxPoint x="220" y="1680" />
            </Array>
          </mxGeometry>
        </mxCell>
        <mxCell id="TxrjslWTLOFKVKNDRbL8-40" value="Система выставляет Стоимость 11 р/км" style="whiteSpace=wrap;html=1;rounded=0;glass=0;strokeWidth=1;shadow=0;fillColor=#ffe6cc;strokeColor=#d79b00;" parent="WIyWlLk6GJQsqaUBKTNV-1" vertex="1">
          <mxGeometry x="707" y="1205" width="120" height="60" as="geometry" />
        </mxCell>
        <mxCell id="x6Bd8umGDYyrX07FAp9d-15" style="edgeStyle=orthogonalEdgeStyle;rounded=0;orthogonalLoop=1;jettySize=auto;html=1;entryX=0;entryY=0.5;entryDx=0;entryDy=0;" parent="WIyWlLk6GJQsqaUBKTNV-1" source="TxrjslWTLOFKVKNDRbL8-86" target="TxrjslWTLOFKVKNDRbL8-96" edge="1">
          <mxGeometry relative="1" as="geometry" />
        </mxCell>
        <mxCell id="TxrjslWTLOFKVKNDRbL8-86" value="Система считает Скорость 50 км/ч" style="whiteSpace=wrap;html=1;rounded=0;glass=0;strokeWidth=1;shadow=0;fillColor=#ffe6cc;strokeColor=#d79b00;" parent="WIyWlLk6GJQsqaUBKTNV-1" vertex="1">
          <mxGeometry x="330" y="875" width="120" height="60" as="geometry" />
        </mxCell>
        <mxCell id="x6Bd8umGDYyrX07FAp9d-33" style="edgeStyle=orthogonalEdgeStyle;rounded=0;orthogonalLoop=1;jettySize=auto;html=1;entryX=0;entryY=0.5;entryDx=0;entryDy=0;" parent="WIyWlLk6GJQsqaUBKTNV-1" source="TxrjslWTLOFKVKNDRbL8-92" target="TxrjslWTLOFKVKNDRbL8-98" edge="1">
          <mxGeometry relative="1" as="geometry" />
        </mxCell>
        <mxCell id="TxrjslWTLOFKVKNDRbL8-92" value="Система считает Скорость 35 км/ч" style="whiteSpace=wrap;html=1;rounded=0;glass=0;strokeWidth=1;shadow=0;fillColor=#ffe6cc;strokeColor=#d79b00;" parent="WIyWlLk6GJQsqaUBKTNV-1" vertex="1">
          <mxGeometry x="330" y="1040" width="120" height="60" as="geometry" />
        </mxCell>
        <mxCell id="x6Bd8umGDYyrX07FAp9d-32" style="edgeStyle=orthogonalEdgeStyle;rounded=0;orthogonalLoop=1;jettySize=auto;html=1;entryX=0;entryY=0.5;entryDx=0;entryDy=0;" parent="WIyWlLk6GJQsqaUBKTNV-1" source="TxrjslWTLOFKVKNDRbL8-93" target="TxrjslWTLOFKVKNDRbL8-97" edge="1">
          <mxGeometry relative="1" as="geometry" />
        </mxCell>
        <mxCell id="TxrjslWTLOFKVKNDRbL8-93" value="Система считает Скорость 40 км/ч" style="whiteSpace=wrap;html=1;rounded=0;glass=0;strokeWidth=1;shadow=0;fillColor=#ffe6cc;strokeColor=#d79b00;" parent="WIyWlLk6GJQsqaUBKTNV-1" vertex="1">
          <mxGeometry x="330" y="1205" width="120" height="60" as="geometry" />
        </mxCell>
        <mxCell id="x6Bd8umGDYyrX07FAp9d-29" style="edgeStyle=orthogonalEdgeStyle;rounded=0;orthogonalLoop=1;jettySize=auto;html=1;entryX=0;entryY=0.5;entryDx=0;entryDy=0;" parent="WIyWlLk6GJQsqaUBKTNV-1" source="TxrjslWTLOFKVKNDRbL8-94" target="TxrjslWTLOFKVKNDRbL8-99" edge="1">
          <mxGeometry relative="1" as="geometry" />
        </mxCell>
        <mxCell id="TxrjslWTLOFKVKNDRbL8-94" value="Система считает Скорость 25 км/ч" style="whiteSpace=wrap;html=1;rounded=0;glass=0;strokeWidth=1;shadow=0;fillColor=#ffe6cc;strokeColor=#d79b00;" parent="WIyWlLk6GJQsqaUBKTNV-1" vertex="1">
          <mxGeometry x="330" y="1365" width="120" height="60" as="geometry" />
        </mxCell>
        <mxCell id="x6Bd8umGDYyrX07FAp9d-31" style="edgeStyle=orthogonalEdgeStyle;rounded=0;orthogonalLoop=1;jettySize=auto;html=1;entryX=0;entryY=0.5;entryDx=0;entryDy=0;" parent="WIyWlLk6GJQsqaUBKTNV-1" source="TxrjslWTLOFKVKNDRbL8-95" target="TxrjslWTLOFKVKNDRbL8-100" edge="1">
          <mxGeometry relative="1" as="geometry" />
        </mxCell>
        <mxCell id="TxrjslWTLOFKVKNDRbL8-95" value="Система считает Скорость 45 км/ч" style="whiteSpace=wrap;html=1;rounded=0;glass=0;strokeWidth=1;shadow=0;fillColor=#ffe6cc;strokeColor=#d79b00;" parent="WIyWlLk6GJQsqaUBKTNV-1" vertex="1">
          <mxGeometry x="330" y="1525" width="120" height="60" as="geometry" />
        </mxCell>
        <mxCell id="x6Bd8umGDYyrX07FAp9d-34" style="edgeStyle=orthogonalEdgeStyle;rounded=1;orthogonalLoop=1;jettySize=auto;html=1;entryX=0;entryY=0.5;entryDx=0;entryDy=0;" parent="WIyWlLk6GJQsqaUBKTNV-1" source="TxrjslWTLOFKVKNDRbL8-96" target="TxrjslWTLOFKVKNDRbL8-40" edge="1">
          <mxGeometry relative="1" as="geometry" />
        </mxCell>
        <mxCell id="TxrjslWTLOFKVKNDRbL8-96" value="Система определяет время маршрута" style="whiteSpace=wrap;html=1;rounded=0;glass=0;strokeWidth=1;shadow=0;fillColor=#ffe6cc;strokeColor=#d79b00;" parent="WIyWlLk6GJQsqaUBKTNV-1" vertex="1">
          <mxGeometry x="490" y="875" width="120" height="60" as="geometry" />
        </mxCell>
        <mxCell id="x6Bd8umGDYyrX07FAp9d-36" style="edgeStyle=orthogonalEdgeStyle;rounded=1;orthogonalLoop=1;jettySize=auto;html=1;entryX=0;entryY=0.5;entryDx=0;entryDy=0;" parent="WIyWlLk6GJQsqaUBKTNV-1" source="TxrjslWTLOFKVKNDRbL8-97" target="TxrjslWTLOFKVKNDRbL8-40" edge="1">
          <mxGeometry relative="1" as="geometry" />
        </mxCell>
        <mxCell id="TxrjslWTLOFKVKNDRbL8-97" value="Система определяет время маршрута" style="whiteSpace=wrap;html=1;rounded=0;glass=0;strokeWidth=1;shadow=0;fillColor=#ffe6cc;strokeColor=#d79b00;" parent="WIyWlLk6GJQsqaUBKTNV-1" vertex="1">
          <mxGeometry x="490" y="1205" width="120" height="60" as="geometry" />
        </mxCell>
        <mxCell id="x6Bd8umGDYyrX07FAp9d-35" style="edgeStyle=orthogonalEdgeStyle;rounded=1;orthogonalLoop=1;jettySize=auto;html=1;entryX=0;entryY=0.5;entryDx=0;entryDy=0;" parent="WIyWlLk6GJQsqaUBKTNV-1" source="TxrjslWTLOFKVKNDRbL8-98" target="TxrjslWTLOFKVKNDRbL8-40" edge="1">
          <mxGeometry relative="1" as="geometry" />
        </mxCell>
        <mxCell id="TxrjslWTLOFKVKNDRbL8-98" value="Система определяет время маршрута" style="whiteSpace=wrap;html=1;rounded=0;glass=0;strokeWidth=1;shadow=0;fillColor=#ffe6cc;strokeColor=#d79b00;" parent="WIyWlLk6GJQsqaUBKTNV-1" vertex="1">
          <mxGeometry x="490" y="1040" width="120" height="60" as="geometry" />
        </mxCell>
        <mxCell id="x6Bd8umGDYyrX07FAp9d-37" style="edgeStyle=orthogonalEdgeStyle;rounded=1;orthogonalLoop=1;jettySize=auto;html=1;entryX=0;entryY=0.5;entryDx=0;entryDy=0;" parent="WIyWlLk6GJQsqaUBKTNV-1" source="TxrjslWTLOFKVKNDRbL8-99" target="TxrjslWTLOFKVKNDRbL8-40" edge="1">
          <mxGeometry relative="1" as="geometry" />
        </mxCell>
        <mxCell id="TxrjslWTLOFKVKNDRbL8-99" value="Система определяет время маршрута" style="whiteSpace=wrap;html=1;rounded=0;glass=0;strokeWidth=1;shadow=0;fillColor=#ffe6cc;strokeColor=#d79b00;" parent="WIyWlLk6GJQsqaUBKTNV-1" vertex="1">
          <mxGeometry x="490" y="1365" width="120" height="60" as="geometry" />
        </mxCell>
        <mxCell id="x6Bd8umGDYyrX07FAp9d-38" style="edgeStyle=orthogonalEdgeStyle;rounded=1;orthogonalLoop=1;jettySize=auto;html=1;entryX=0;entryY=0.5;entryDx=0;entryDy=0;" parent="WIyWlLk6GJQsqaUBKTNV-1" source="TxrjslWTLOFKVKNDRbL8-100" target="TxrjslWTLOFKVKNDRbL8-40" edge="1">
          <mxGeometry relative="1" as="geometry" />
        </mxCell>
        <mxCell id="TxrjslWTLOFKVKNDRbL8-100" value="Система определяет время маршрута" style="whiteSpace=wrap;html=1;rounded=0;glass=0;strokeWidth=1;shadow=0;fillColor=#ffe6cc;strokeColor=#d79b00;" parent="WIyWlLk6GJQsqaUBKTNV-1" vertex="1">
          <mxGeometry x="490" y="1525" width="120" height="60" as="geometry" />
        </mxCell>
        <mxCell id="oh5eWrbdU4gbp5_5aUjE-4" value="&lt;h1&gt;Блок-схема задания проекта&lt;/h1&gt;" style="text;html=1;strokeColor=none;fillColor=none;spacing=5;spacingTop=-20;whiteSpace=wrap;overflow=hidden;rounded=0;" parent="WIyWlLk6GJQsqaUBKTNV-1" vertex="1">
          <mxGeometry x="430" y="1865" width="397" height="40" as="geometry" />
        </mxCell>
        <mxCell id="x6Bd8umGDYyrX07FAp9d-9" style="edgeStyle=orthogonalEdgeStyle;rounded=0;orthogonalLoop=1;jettySize=auto;html=1;entryX=0.5;entryY=0;entryDx=0;entryDy=0;" parent="WIyWlLk6GJQsqaUBKTNV-1" source="x6Bd8umGDYyrX07FAp9d-3" target="x6Bd8umGDYyrX07FAp9d-8" edge="1">
          <mxGeometry relative="1" as="geometry" />
        </mxCell>
        <mxCell id="x6Bd8umGDYyrX07FAp9d-14" style="edgeStyle=orthogonalEdgeStyle;rounded=0;orthogonalLoop=1;jettySize=auto;html=1;entryX=0;entryY=0.5;entryDx=0;entryDy=0;" parent="WIyWlLk6GJQsqaUBKTNV-1" source="x6Bd8umGDYyrX07FAp9d-3" target="TxrjslWTLOFKVKNDRbL8-86" edge="1">
          <mxGeometry relative="1" as="geometry" />
        </mxCell>
        <mxCell id="x6Bd8umGDYyrX07FAp9d-3" value="Интервал времени Пользователя с 00:01 до 08:00?" style="rhombus;whiteSpace=wrap;html=1;rounded=0;glass=0;strokeWidth=1;shadow=0;fillColor=#e1d5e7;strokeColor=#9673a6;" parent="WIyWlLk6GJQsqaUBKTNV-1" vertex="1">
          <mxGeometry x="155" y="840" width="130" height="130" as="geometry" />
        </mxCell>
        <mxCell id="x6Bd8umGDYyrX07FAp9d-23" style="edgeStyle=orthogonalEdgeStyle;rounded=0;orthogonalLoop=1;jettySize=auto;html=1;" parent="WIyWlLk6GJQsqaUBKTNV-1" source="x6Bd8umGDYyrX07FAp9d-8" target="x6Bd8umGDYyrX07FAp9d-20" edge="1">
          <mxGeometry relative="1" as="geometry" />
        </mxCell>
        <mxCell id="x6Bd8umGDYyrX07FAp9d-26" style="edgeStyle=orthogonalEdgeStyle;rounded=0;orthogonalLoop=1;jettySize=auto;html=1;entryX=0;entryY=0.5;entryDx=0;entryDy=0;" parent="WIyWlLk6GJQsqaUBKTNV-1" source="x6Bd8umGDYyrX07FAp9d-8" target="TxrjslWTLOFKVKNDRbL8-92" edge="1">
          <mxGeometry relative="1" as="geometry" />
        </mxCell>
        <mxCell id="x6Bd8umGDYyrX07FAp9d-8" value="Интервал времени Пользователя с 08:01 до 12:00" style="rhombus;whiteSpace=wrap;html=1;rounded=0;glass=0;strokeWidth=1;shadow=0;fillColor=#e1d5e7;strokeColor=#9673a6;" parent="WIyWlLk6GJQsqaUBKTNV-1" vertex="1">
          <mxGeometry x="155" y="1005" width="130" height="130" as="geometry" />
        </mxCell>
        <mxCell id="x6Bd8umGDYyrX07FAp9d-10" value="Нет" style="text;html=1;strokeColor=none;fillColor=none;align=center;verticalAlign=middle;whiteSpace=wrap;rounded=0;fontColor=#FF0000;" parent="WIyWlLk6GJQsqaUBKTNV-1" vertex="1">
          <mxGeometry x="170" y="970" width="60" height="30" as="geometry" />
        </mxCell>
        <mxCell id="x6Bd8umGDYyrX07FAp9d-24" style="edgeStyle=orthogonalEdgeStyle;rounded=0;orthogonalLoop=1;jettySize=auto;html=1;" parent="WIyWlLk6GJQsqaUBKTNV-1" source="x6Bd8umGDYyrX07FAp9d-20" target="x6Bd8umGDYyrX07FAp9d-21" edge="1">
          <mxGeometry relative="1" as="geometry" />
        </mxCell>
        <mxCell id="x6Bd8umGDYyrX07FAp9d-27" style="edgeStyle=orthogonalEdgeStyle;rounded=0;orthogonalLoop=1;jettySize=auto;html=1;entryX=0;entryY=0.5;entryDx=0;entryDy=0;" parent="WIyWlLk6GJQsqaUBKTNV-1" source="x6Bd8umGDYyrX07FAp9d-20" target="TxrjslWTLOFKVKNDRbL8-93" edge="1">
          <mxGeometry relative="1" as="geometry" />
        </mxCell>
        <mxCell id="x6Bd8umGDYyrX07FAp9d-20" value="Интервал времени Пользователя с 12:01 до 18:00" style="rhombus;whiteSpace=wrap;html=1;rounded=0;glass=0;strokeWidth=1;shadow=0;fillColor=#e1d5e7;strokeColor=#9673a6;" parent="WIyWlLk6GJQsqaUBKTNV-1" vertex="1">
          <mxGeometry x="155" y="1170" width="130" height="130" as="geometry" />
        </mxCell>
        <mxCell id="x6Bd8umGDYyrX07FAp9d-25" style="edgeStyle=orthogonalEdgeStyle;rounded=0;orthogonalLoop=1;jettySize=auto;html=1;entryX=0.5;entryY=0;entryDx=0;entryDy=0;" parent="WIyWlLk6GJQsqaUBKTNV-1" source="x6Bd8umGDYyrX07FAp9d-21" target="x6Bd8umGDYyrX07FAp9d-22" edge="1">
          <mxGeometry relative="1" as="geometry" />
        </mxCell>
        <mxCell id="x6Bd8umGDYyrX07FAp9d-28" style="edgeStyle=orthogonalEdgeStyle;rounded=0;orthogonalLoop=1;jettySize=auto;html=1;entryX=0;entryY=0.5;entryDx=0;entryDy=0;" parent="WIyWlLk6GJQsqaUBKTNV-1" source="x6Bd8umGDYyrX07FAp9d-21" target="TxrjslWTLOFKVKNDRbL8-94" edge="1">
          <mxGeometry relative="1" as="geometry" />
        </mxCell>
        <mxCell id="x6Bd8umGDYyrX07FAp9d-21" value="Интервал времени Пользователя с 18:01 до 22:00" style="rhombus;whiteSpace=wrap;html=1;rounded=0;glass=0;strokeWidth=1;shadow=0;fillColor=#e1d5e7;strokeColor=#9673a6;" parent="WIyWlLk6GJQsqaUBKTNV-1" vertex="1">
          <mxGeometry x="155" y="1330" width="130" height="130" as="geometry" />
        </mxCell>
        <mxCell id="x6Bd8umGDYyrX07FAp9d-30" style="edgeStyle=orthogonalEdgeStyle;rounded=0;orthogonalLoop=1;jettySize=auto;html=1;entryX=0;entryY=0.5;entryDx=0;entryDy=0;" parent="WIyWlLk6GJQsqaUBKTNV-1" source="x6Bd8umGDYyrX07FAp9d-22" target="TxrjslWTLOFKVKNDRbL8-95" edge="1">
          <mxGeometry relative="1" as="geometry" />
        </mxCell>
        <mxCell id="GXfTCK9ahf9_WwvT0qx7-1" style="edgeStyle=orthogonalEdgeStyle;rounded=1;orthogonalLoop=1;jettySize=auto;html=1;entryX=0;entryY=0.5;entryDx=0;entryDy=0;" edge="1" parent="WIyWlLk6GJQsqaUBKTNV-1" source="x6Bd8umGDYyrX07FAp9d-22" target="MDdszQrk_3YS0Ri55PwZ-13">
          <mxGeometry relative="1" as="geometry">
            <Array as="points">
              <mxPoint x="60" y="1555" />
              <mxPoint x="60" y="785" />
              <mxPoint x="-50" y="785" />
              <mxPoint x="-50" y="50" />
            </Array>
          </mxGeometry>
        </mxCell>
        <mxCell id="x6Bd8umGDYyrX07FAp9d-22" value="Интервал времени Пользователя с 22:01 до 00:00" style="rhombus;whiteSpace=wrap;html=1;rounded=0;glass=0;strokeWidth=1;shadow=0;fillColor=#e1d5e7;strokeColor=#9673a6;" parent="WIyWlLk6GJQsqaUBKTNV-1" vertex="1">
          <mxGeometry x="155" y="1490" width="130" height="130" as="geometry" />
        </mxCell>
        <mxCell id="x6Bd8umGDYyrX07FAp9d-42" style="edgeStyle=orthogonalEdgeStyle;rounded=1;orthogonalLoop=1;jettySize=auto;html=1;entryX=0.5;entryY=0;entryDx=0;entryDy=0;" parent="WIyWlLk6GJQsqaUBKTNV-1" source="x6Bd8umGDYyrX07FAp9d-41" target="MDdszQrk_3YS0Ri55PwZ-55" edge="1">
          <mxGeometry relative="1" as="geometry" />
        </mxCell>
        <mxCell id="x6Bd8umGDYyrX07FAp9d-41" value="Строится маршрут" style="whiteSpace=wrap;html=1;rounded=0;glass=0;strokeWidth=1;shadow=0;fillColor=#ffe6cc;strokeColor=#d79b00;" parent="WIyWlLk6GJQsqaUBKTNV-1" vertex="1">
          <mxGeometry x="90" y="1724" width="260" height="60" as="geometry" />
        </mxCell>
        <mxCell id="x6Bd8umGDYyrX07FAp9d-46" value="Нет" style="text;html=1;strokeColor=none;fillColor=none;align=center;verticalAlign=middle;whiteSpace=wrap;rounded=0;fontColor=#FF0000;" parent="WIyWlLk6GJQsqaUBKTNV-1" vertex="1">
          <mxGeometry x="170" y="1130" width="60" height="30" as="geometry" />
        </mxCell>
        <mxCell id="x6Bd8umGDYyrX07FAp9d-47" value="Нет" style="text;html=1;strokeColor=none;fillColor=none;align=center;verticalAlign=middle;whiteSpace=wrap;rounded=0;fontColor=#FF0000;" parent="WIyWlLk6GJQsqaUBKTNV-1" vertex="1">
          <mxGeometry x="170" y="1300" width="60" height="30" as="geometry" />
        </mxCell>
        <mxCell id="x6Bd8umGDYyrX07FAp9d-48" value="Нет" style="text;html=1;strokeColor=none;fillColor=none;align=center;verticalAlign=middle;whiteSpace=wrap;rounded=0;fontColor=#FF0000;" parent="WIyWlLk6GJQsqaUBKTNV-1" vertex="1">
          <mxGeometry x="170" y="1460" width="60" height="30" as="geometry" />
        </mxCell>
        <mxCell id="x6Bd8umGDYyrX07FAp9d-65" value="Да" style="text;html=1;strokeColor=none;fillColor=none;align=center;verticalAlign=middle;whiteSpace=wrap;rounded=0;" parent="WIyWlLk6GJQsqaUBKTNV-1" vertex="1">
          <mxGeometry x="270" y="860" width="60" height="30" as="geometry" />
        </mxCell>
        <mxCell id="x6Bd8umGDYyrX07FAp9d-66" value="Да" style="text;html=1;strokeColor=none;fillColor=none;align=center;verticalAlign=middle;whiteSpace=wrap;rounded=0;" parent="WIyWlLk6GJQsqaUBKTNV-1" vertex="1">
          <mxGeometry x="270" y="1030" width="60" height="30" as="geometry" />
        </mxCell>
        <mxCell id="x6Bd8umGDYyrX07FAp9d-67" value="Да" style="text;html=1;strokeColor=none;fillColor=none;align=center;verticalAlign=middle;whiteSpace=wrap;rounded=0;" parent="WIyWlLk6GJQsqaUBKTNV-1" vertex="1">
          <mxGeometry x="270" y="1200" width="60" height="30" as="geometry" />
        </mxCell>
        <mxCell id="x6Bd8umGDYyrX07FAp9d-68" value="Да" style="text;html=1;strokeColor=none;fillColor=none;align=center;verticalAlign=middle;whiteSpace=wrap;rounded=0;" parent="WIyWlLk6GJQsqaUBKTNV-1" vertex="1">
          <mxGeometry x="270" y="1360" width="60" height="30" as="geometry" />
        </mxCell>
        <mxCell id="x6Bd8umGDYyrX07FAp9d-69" value="Да" style="text;html=1;strokeColor=none;fillColor=none;align=center;verticalAlign=middle;whiteSpace=wrap;rounded=0;" parent="WIyWlLk6GJQsqaUBKTNV-1" vertex="1">
          <mxGeometry x="270" y="1520" width="60" height="30" as="geometry" />
        </mxCell>
        <mxCell id="GXfTCK9ahf9_WwvT0qx7-2" value="Нет" style="text;html=1;strokeColor=none;fillColor=none;align=center;verticalAlign=middle;whiteSpace=wrap;rounded=0;fontColor=#FF0000;" vertex="1" parent="WIyWlLk6GJQsqaUBKTNV-1">
          <mxGeometry x="80" y="1520" width="60" height="30" as="geometry" />
        </mxCell>
      </root>
    </mxGraphModel>
  </diagram>
</mxfile>
